<svg viewBox="0 0 800 420" xmlns="http://www.w3.org/2000/svg">
  <rect width="800" height="420" fill="#1e1b2e"/>
  <ellipse cx="400" cy="210" rx="160" ry="100" fill="none" stroke="#6366f1" stroke-width="1.5" opacity="0.4"/>
  <ellipse cx="400" cy="210" rx="110" ry="70" fill="none" stroke="#6366f1" stroke-width="1" opacity="0.25"/>
  <circle cx="400" cy="110" r="10" fill="#6366f1"/>
  <circle cx="540" cy="245" r="10" fill="#6366f1" opacity="0.7"/>
  <circle cx="260" cy="245" r="10" fill="#6366f1" opacity="0.7"/>
  <polygon points="400,60 420,100 380,100" fill="#6366f1" opacity="0.5"/>
  <polygon points="590,250 560,230 565,265" fill="#6366f1" opacity="0.5"/>
  <polygon points="210,250 240,230 235,265" fill="#6366f1" opacity="0.5"/>
  <rect x="350" y="185" width="100" height="50" rx="8" fill="#6366f1" opacity="0.2" stroke="#6366f1" stroke-width="1"/>
  <circle cx="400" cy="210" r="5" fill="#f5f0e8" opacity="0.6"/>
  <line x1="100" y1="80" x2="200" y2="140" stroke="#f5f0e8" stroke-width="1" opacity="0.1"/>
  <line x1="700" y1="80" x2="600" y2="140" stroke="#f5f0e8" stroke-width="1" opacity="0.1"/>
  <line x1="100" y1="340" x2="200" y2="280" stroke="#f5f0e8" stroke-width="1" opacity="0.1"/>
  <line x1="700" y1="340" x2="600" y2="280" stroke="#f5f0e8" stroke-width="1" opacity="0.1"/>
  <circle cx="100" cy="80" r="4" fill="#f5f0e8" opacity="0.2"/>
  <circle cx="700" cy="80" r="4" fill="#f5f0e8" opacity="0.2"/>
  <circle cx="100" cy="340" r="4" fill="#f5f0e8" opacity="0.2"/>
  <circle cx="700" cy="340" r="4" fill="#f5f0e8" opacity="0.2"/>
</svg>