<svg xmlns="http://www.w3.org/2000/svg" viewBox="0 0 800 420" width="800" height="420" role="img" aria-label="Prompt generates an app; QA probes its data layer">
  <rect width="800" height="420" fill="#1e1b2e"/>
  <rect x="30" y="118" width="170" height="130" rx="12" fill="#f5f0e8" fill-opacity="0.05" stroke="#6366f1" stroke-opacity="0.5"/>
  <rect x="50" y="142" width="104" height="9" rx="4.5" fill="#6366f1" fill-opacity="0.75"/>
  <rect x="50" y="162" width="130" height="9" rx="4.5" fill="#f5f0e8" fill-opacity="0.22"/>
  <rect x="50" y="182" width="78" height="9" rx="4.5" fill="#f5f0e8" fill-opacity="0.22"/>
  <rect x="50" y="213" width="58" height="20" rx="10" fill="#6366f1"/>
  <path d="M206 183 h40" stroke="#6366f1" stroke-width="2.5"/>
  <path d="M240 175 l10 8 -10 8 z" fill="#6366f1"/>
  <rect x="262" y="78" width="268" height="210" rx="14" fill="#f5f0e8" fill-opacity="0.07" stroke="#f5f0e8" stroke-opacity="0.2"/>
  <path d="M262 108 h268" stroke="#f5f0e8" stroke-opacity="0.2" stroke-width="1.5"/>
  <circle cx="282" cy="93" r="4.5" fill="#f87171" fill-opacity="0.8"/>
  <circle cx="297" cy="93" r="4.5" fill="#f5f0e8" fill-opacity="0.3"/>
  <circle cx="312" cy="93" r="4.5" fill="#4ade80" fill-opacity="0.7"/>
  <rect x="284" y="128" width="96" height="60" rx="8" fill="#6366f1" fill-opacity="0.3" stroke="#6366f1" stroke-opacity="0.6"/>
  <rect x="392" y="128" width="116" height="60" rx="8" fill="#f5f0e8" fill-opacity="0.08"/>
  <rect x="284" y="202" width="224" height="11" rx="5.5" fill="#f5f0e8" fill-opacity="0.16"/>
  <rect x="284" y="224" width="164" height="11" rx="5.5" fill="#f5f0e8" fill-opacity="0.16"/>
  <rect x="284" y="250" width="70" height="22" rx="11" fill="#6366f1" fill-opacity="0.85"/>
  <circle cx="486" cy="158" r="17" fill="#f87171" fill-opacity="0.2" stroke="#f87171" stroke-width="2"/>
  <path d="M480 152 l12 12 M492 152 l-12 12" stroke="#f87171" stroke-width="2.2"/>
  <path d="M536 183 h42" stroke="#4ade80" stroke-width="2.5" stroke-dasharray="7 5"/>
  <path d="M572 175 l10 8 -10 8 z" fill="#4ade80"/>
  <ellipse cx="672" cy="122" rx="74" ry="20" fill="#6366f1" fill-opacity="0.35" stroke="#6366f1" stroke-opacity="0.7"/>
  <path d="M598 122 v120 a74 20 0 0 0 148 0 v-120" fill="#6366f1" fill-opacity="0.14" stroke="#6366f1" stroke-opacity="0.7" stroke-width="1.5"/>
  <path d="M598 172 a74 20 0 0 0 148 0" fill="none" stroke="#6366f1" stroke-opacity="0.45" stroke-width="1.5"/>
  <path d="M598 212 a74 20 0 0 0 148 0" fill="none" stroke="#6366f1" stroke-opacity="0.45" stroke-width="1.5"/>
  <rect x="654" y="196" width="36" height="28" rx="6" fill="#4ade80" fill-opacity="0.9"/>
  <path d="M661 196 v-10 a11 11 0 0 1 22 0 v10" fill="none" stroke="#4ade80" stroke-width="4"/>
  <path d="M60 322 l12 13 22 -26" fill="none" stroke="#4ade80" stroke-width="4" stroke-linecap="round"/>
  <rect x="110" y="320" width="150" height="10" rx="5" fill="#f5f0e8" fill-opacity="0.2"/>
  <path d="M60 372 l12 13 22 -26" fill="none" stroke="#4ade80" stroke-width="4" stroke-linecap="round"/>
  <rect x="110" y="370" width="210" height="10" rx="5" fill="#f5f0e8" fill-opacity="0.2"/>
  <path d="M392 328 l14 14 M406 328 l-14 14" stroke="#f87171" stroke-width="4" stroke-linecap="round"/>
  <rect x="428" y="330" width="178" height="10" rx="5" fill="#f87171" fill-opacity="0.35"/>
  <path d="M392 374 l12 13 22 -26" fill="none" stroke="#4ade80" stroke-width="4" stroke-linecap="round"/>
  <rect x="442" y="370" width="134" height="10" rx="5" fill="#f5f0e8" fill-opacity="0.2"/>
</svg>
