<svg xmlns="http://www.w3.org/2000/svg" viewBox="0 0 800 420" width="800" height="420" role="img" aria-label="Testing AI-generated code: generated code flows into a browser where seam checks pass and one fails">
  <rect x="0" y="0" width="800" height="420" fill="#1e1b2e"/>
  <rect x="0" y="0" width="800" height="3" fill="#6366f1"/>

  <rect x="48" y="96" width="210" height="180" rx="14" fill="#f5f0e8" fill-opacity="0.04" stroke="#6366f1" stroke-width="1.5"/>
  <path d="M88 124 l7 -16 l7 16 l16 7 l-16 7 l-7 16 l-7 -16 l-16 -7 z" fill="#6366f1"/>
  <rect x="126" y="122" width="96" height="9" rx="4.5" fill="#f5f0e8" fill-opacity="0.35"/>
  <rect x="78" y="164" width="150" height="9" rx="4.5" fill="#f5f0e8" fill-opacity="0.22"/>
  <rect x="78" y="186" width="112" height="9" rx="4.5" fill="#f5f0e8" fill-opacity="0.22"/>
  <rect x="78" y="208" width="138" height="9" rx="4.5" fill="#f5f0e8" fill-opacity="0.22"/>
  <rect x="78" y="230" width="86" height="9" rx="4.5" fill="#f5f0e8" fill-opacity="0.14"/>

  <line x1="272" y1="186" x2="352" y2="186" stroke="#6366f1" stroke-width="2.5" stroke-dasharray="9 7"/>
  <polyline points="342,178 354,186 342,194" fill="none" stroke="#6366f1" stroke-width="2.5" stroke-linecap="round" stroke-linejoin="round"/>

  <rect x="372" y="78" width="380" height="216" rx="14" fill="#f5f0e8" fill-opacity="0.05" stroke="#f5f0e8" stroke-opacity="0.18" stroke-width="1.5"/>
  <line x1="372" y1="110" x2="752" y2="110" stroke="#f5f0e8" stroke-opacity="0.18" stroke-width="1.5"/>
  <circle cx="392" cy="94" r="4.5" fill="#f87171"/>
  <circle cx="408" cy="94" r="4.5" fill="#f5f0e8" fill-opacity="0.3"/>
  <circle cx="424" cy="94" r="4.5" fill="#f5f0e8" fill-opacity="0.3"/>

  <line x1="444" y1="200" x2="558" y2="200" stroke="#4ade80" stroke-width="2.5"/>
  <line x1="606" y1="200" x2="694" y2="200" stroke="#f87171" stroke-width="2.5" stroke-dasharray="6 6"/>
  <circle cx="434" cy="200" r="22" fill="#1e1b2e" stroke="#4ade80" stroke-width="2.5"/>
  <polyline points="425,200 431,207 444,192" fill="none" stroke="#4ade80" stroke-width="2.5" stroke-linecap="round" stroke-linejoin="round"/>
  <circle cx="582" cy="200" r="22" fill="#1e1b2e" stroke="#4ade80" stroke-width="2.5"/>
  <polyline points="573,200 579,207 592,192" fill="none" stroke="#4ade80" stroke-width="2.5" stroke-linecap="round" stroke-linejoin="round"/>
  <circle cx="704" cy="200" r="24" fill="#1e1b2e" stroke="#f87171" stroke-width="2.5"/>
  <line x1="696" y1="192" x2="712" y2="208" stroke="#f87171" stroke-width="2.5" stroke-linecap="round"/>
  <line x1="712" y1="192" x2="696" y2="208" stroke="#f87171" stroke-width="2.5" stroke-linecap="round"/>
  <path d="M704 148 v18" stroke="#f87171" stroke-width="2" stroke-linecap="round"/>
  <circle cx="704" cy="140" r="5" fill="#f87171"/>

  <rect x="404" y="244" width="120" height="8" rx="4" fill="#4ade80" fill-opacity="0.35"/>
  <rect x="540" y="244" width="84" height="8" rx="4" fill="#4ade80" fill-opacity="0.35"/>
  <rect x="640" y="244" width="72" height="8" rx="4" fill="#f87171" fill-opacity="0.45"/>

  <rect x="48" y="322" width="140" height="30" rx="15" fill="#6366f1" fill-opacity="0.18" stroke="#6366f1" stroke-width="1.2"/>
  <rect x="204" y="322" width="140" height="30" rx="15" fill="#6366f1" fill-opacity="0.18" stroke="#6366f1" stroke-width="1.2"/>
  <rect x="360" y="322" width="140" height="30" rx="15" fill="#6366f1" fill-opacity="0.18" stroke="#6366f1" stroke-width="1.2"/>
  <rect x="516" y="322" width="140" height="30" rx="15" fill="#6366f1" fill-opacity="0.18" stroke="#6366f1" stroke-width="1.2"/>
  <rect x="672" y="322" width="80" height="30" rx="15" fill="#f87171" fill-opacity="0.2" stroke="#f87171" stroke-width="1.2"/>
</svg>
