<svg xmlns="http://www.w3.org/2000/svg" viewBox="0 0 800 420" width="800" height="420" role="img" aria-label="Vibe coding: a prompt generates unreviewed code that looks correct on the surface while bugs hide underneath">
  <rect width="800" height="420" fill="#1e1b2e"/>
  <rect x="0" y="0" width="800" height="3" fill="#6366f1" opacity="0.5"/>

  <rect x="48" y="96" width="176" height="128" rx="14" fill="#6366f1" opacity="0.12"/>
  <rect x="48" y="96" width="176" height="128" rx="14" fill="none" stroke="#6366f1" stroke-width="1.5"/>
  <rect x="70" y="124" width="104" height="7" rx="3.5" fill="#f5f0e8" opacity="0.5"/>
  <rect x="70" y="144" width="132" height="7" rx="3.5" fill="#f5f0e8" opacity="0.32"/>
  <rect x="70" y="164" width="86" height="7" rx="3.5" fill="#f5f0e8" opacity="0.32"/>
  <rect x="70" y="190" width="52" height="14" rx="7" fill="#6366f1" opacity="0.85"/>

  <line x1="236" y1="160" x2="300" y2="160" stroke="#6366f1" stroke-width="2"/>
  <polyline points="288,151 300,160 288,169" fill="none" stroke="#6366f1" stroke-width="2"/>

  <rect x="312" y="56" width="176" height="208" rx="12" fill="#f5f0e8" opacity="0.05"/>
  <rect x="312" y="56" width="176" height="208" rx="12" fill="none" stroke="#f5f0e8" stroke-opacity="0.22" stroke-width="1.5"/>
  <line x1="312" y1="84" x2="488" y2="84" stroke="#f5f0e8" stroke-opacity="0.22" stroke-width="1.5"/>
  <circle cx="328" cy="70" r="3.5" fill="#f87171" opacity="0.6"/>
  <circle cx="340" cy="70" r="3.5" fill="#f5f0e8" opacity="0.25"/>
  <rect x="330" y="102" width="118" height="6" rx="3" fill="#f5f0e8" opacity="0.4"/>
  <rect x="330" y="120" width="88" height="6" rx="3" fill="#f5f0e8" opacity="0.26"/>
  <rect x="344" y="138" width="106" height="6" rx="3" fill="#f5f0e8" opacity="0.26"/>
  <rect x="344" y="156" width="70" height="6" rx="3" fill="#f87171" opacity="0.75"/>
  <rect x="330" y="174" width="124" height="6" rx="3" fill="#f5f0e8" opacity="0.26"/>
  <rect x="344" y="192" width="54" height="6" rx="3" fill="#f87171" opacity="0.75"/>
  <rect x="330" y="210" width="96" height="6" rx="3" fill="#f5f0e8" opacity="0.26"/>
  <rect x="330" y="232" width="62" height="6" rx="3" fill="#f5f0e8" opacity="0.18"/>

  <line x1="500" y1="160" x2="564" y2="160" stroke="#6366f1" stroke-width="2" stroke-dasharray="6 5"/>
  <polyline points="552,151 564,160 552,169" fill="none" stroke="#6366f1" stroke-width="2"/>

  <rect x="576" y="80" width="176" height="80" rx="12" fill="#4ade80" opacity="0.1"/>
  <rect x="576" y="80" width="176" height="80" rx="12" fill="none" stroke="#4ade80" stroke-width="1.5"/>
  <polyline points="602,120 614,132 638,106" fill="none" stroke="#4ade80" stroke-width="3" stroke-linecap="round"/>
  <rect x="656" y="116" width="72" height="7" rx="3.5" fill="#4ade80" opacity="0.55"/>

  <rect x="576" y="184" width="176" height="80" rx="12" fill="#f87171" opacity="0.1"/>
  <rect x="576" y="184" width="176" height="80" rx="12" fill="none" stroke="#f87171" stroke-width="1.5" stroke-dasharray="5 4"/>
  <circle cx="616" cy="224" r="13" fill="none" stroke="#f87171" stroke-width="2.5"/>
  <line x1="616" y1="211" x2="616" y2="227" stroke="#f87171" stroke-width="2.5" stroke-linecap="round"/>
  <circle cx="616" cy="233" r="1.8" fill="#f87171"/>
  <rect x="656" y="220" width="58" height="7" rx="3.5" fill="#f87171" opacity="0.55"/>

  <rect x="48" y="320" width="704" height="1" fill="#f5f0e8" opacity="0.14"/>
  <rect x="48" y="344" width="128" height="8" rx="4" fill="#6366f1" opacity="0.7"/>
  <rect x="192" y="344" width="96" height="8" rx="4" fill="#f5f0e8" opacity="0.2"/>
  <rect x="304" y="344" width="72" height="8" rx="4" fill="#f87171" opacity="0.5"/>
</svg>
